<?xml version="1.0" standalone="no"?><svg xmlns="http://www.w3.org/2000/svg" viewBox="0 0 1440 320"><path fill="#ffffff" fill-opacity="1" d="M0,160L14.1,176C28.2,192,56,224,85,218.7C112.9,213,141,171,169,128C197.6,85,226,43,254,26.7C282.4,11,311,21,339,48C367.1,75,395,117,424,154.7C451.8,192,480,224,508,229.3C536.5,235,565,213,593,213.3C621.2,213,649,235,678,208C705.9,181,734,107,762,112C790.6,117,819,203,847,197.3C875.3,192,904,96,932,80C960,64,988,128,1016,133.3C1044.7,139,1073,85,1101,53.3C1129.4,21,1158,11,1186,16C1214.1,21,1242,43,1271,42.7C1298.8,43,1327,21,1355,42.7C1383.5,64,1412,128,1426,160L1440,192L1440,320L1425.9,320C1411.8,320,1384,320,1355,320C1327.1,320,1299,320,1271,320C1242.4,320,1214,320,1186,320C1157.6,320,1129,320,1101,320C1072.9,320,1045,320,1016,320C988.2,320,960,320,932,320C903.5,320,875,320,847,320C818.8,320,791,320,762,320C734.1,320,706,320,678,320C649.4,320,621,320,593,320C564.7,320,536,320,508,320C480,320,452,320,424,320C395.3,320,367,320,339,320C310.6,320,282,320,254,320C225.9,320,198,320,169,320C141.2,320,113,320,85,320C56.5,320,28,320,14,320L0,320Z"></path></svg>