<?xml version="1.0" standalone="no"?><svg xmlns="http://www.w3.org/2000/svg" viewBox="0 0 1440 320"><path fill="#ffffff" fill-opacity="1" d="M0,288L14.1,250.7C28.2,213,56,139,85,117.3C112.9,96,141,128,169,138.7C197.6,149,226,139,254,154.7C282.4,171,311,213,339,197.3C367.1,181,395,107,424,80C451.8,53,480,75,508,85.3C536.5,96,565,96,593,85.3C621.2,75,649,53,678,42.7C705.9,32,734,32,762,42.7C790.6,53,819,75,847,112C875.3,149,904,203,932,186.7C960,171,988,85,1016,69.3C1044.7,53,1073,107,1101,160C1129.4,213,1158,267,1186,261.3C1214.1,256,1242,192,1271,144C1298.8,96,1327,64,1355,96C1383.5,128,1412,224,1426,272L1440,320L1440,320L1425.9,320C1411.8,320,1384,320,1355,320C1327.1,320,1299,320,1271,320C1242.4,320,1214,320,1186,320C1157.6,320,1129,320,1101,320C1072.9,320,1045,320,1016,320C988.2,320,960,320,932,320C903.5,320,875,320,847,320C818.8,320,791,320,762,320C734.1,320,706,320,678,320C649.4,320,621,320,593,320C564.7,320,536,320,508,320C480,320,452,320,424,320C395.3,320,367,320,339,320C310.6,320,282,320,254,320C225.9,320,198,320,169,320C141.2,320,113,320,85,320C56.5,320,28,320,14,320L0,320Z"></path></svg>