<?xml version="1.0" standalone="no"?><svg xmlns="http://www.w3.org/2000/svg" viewBox="0 0 1440 320"><path fill="#ffffff" fill-opacity="1" d="M0,288L17.1,277.3C34.3,267,69,245,103,245.3C137.1,245,171,267,206,240C240,213,274,139,309,101.3C342.9,64,377,64,411,69.3C445.7,75,480,85,514,122.7C548.6,160,583,224,617,208C651.4,192,686,96,720,90.7C754.3,85,789,171,823,197.3C857.1,224,891,192,926,192C960,192,994,224,1029,234.7C1062.9,245,1097,235,1131,192C1165.7,149,1200,75,1234,53.3C1268.6,32,1303,64,1337,85.3C1371.4,107,1406,117,1423,122.7L1440,128L1440,320L1422.9,320C1405.7,320,1371,320,1337,320C1302.9,320,1269,320,1234,320C1200,320,1166,320,1131,320C1097.1,320,1063,320,1029,320C994.3,320,960,320,926,320C891.4,320,857,320,823,320C788.6,320,754,320,720,320C685.7,320,651,320,617,320C582.9,320,549,320,514,320C480,320,446,320,411,320C377.1,320,343,320,309,320C274.3,320,240,320,206,320C171.4,320,137,320,103,320C68.6,320,34,320,17,320L0,320Z"></path></svg>